<svg width="485" height="88" viewBox="0 0 485 88" fill="none" xmlns="http://www.w3.org/2000/svg">
<rect width="485" height="88" rx="15" fill="#02264D"/>
<path d="M123.591 29.7273L130.068 48.6818H130.33L136.807 29.7273H140.602L132.227 53H128.17L119.795 29.7273H123.591ZM149.463 53.3523C147.743 53.3523 146.262 52.9848 145.02 52.25C143.785 51.5076 142.83 50.4659 142.156 49.125C141.49 47.7765 141.156 46.197 141.156 44.3864C141.156 42.5985 141.49 41.0227 142.156 39.6591C142.83 38.2955 143.77 37.2311 144.974 36.4659C146.187 35.7008 147.603 35.3182 149.224 35.3182C150.209 35.3182 151.164 35.4811 152.088 35.8068C153.012 36.1326 153.842 36.6439 154.577 37.3409C155.312 38.0379 155.891 38.9432 156.315 40.0568C156.74 41.1629 156.952 42.5076 156.952 44.0909V45.2955H143.077V42.75H153.622C153.622 41.8561 153.44 41.0644 153.077 40.375C152.713 39.678 152.202 39.1288 151.543 38.7273C150.891 38.3258 150.126 38.125 149.247 38.125C148.293 38.125 147.459 38.3598 146.747 38.8295C146.043 39.2917 145.497 39.8977 145.111 40.6477C144.732 41.3902 144.543 42.197 144.543 43.0682V45.0568C144.543 46.2235 144.747 47.2159 145.156 48.0341C145.573 48.8523 146.152 49.4773 146.895 49.9091C147.637 50.3333 148.505 50.5455 149.497 50.5455C150.141 50.5455 150.728 50.4545 151.259 50.2727C151.789 50.0833 152.247 49.803 152.634 49.4318C153.02 49.0606 153.315 48.6023 153.52 48.0568L156.736 48.6364C156.478 49.5833 156.016 50.4129 155.349 51.125C154.69 51.8295 153.861 52.3788 152.861 52.7727C151.868 53.1591 150.736 53.3523 149.463 53.3523ZM160.722 53V35.5455H164.006V38.3182H164.188C164.506 37.3788 165.066 36.6402 165.869 36.1023C166.68 35.5568 167.597 35.2841 168.619 35.2841C168.831 35.2841 169.081 35.2917 169.369 35.3068C169.665 35.322 169.896 35.3409 170.062 35.3636V38.6136C169.926 38.5758 169.684 38.5341 169.335 38.4886C168.987 38.4356 168.638 38.4091 168.29 38.4091C167.487 38.4091 166.771 38.5795 166.142 38.9205C165.521 39.2538 165.028 39.7197 164.665 40.3182C164.301 40.9091 164.119 41.5833 164.119 42.3409V53H160.722ZM181.744 53V29.7273H185.256V49.9773H195.801V53H181.744ZM206.886 53.3523C205.25 53.3523 203.822 52.9773 202.602 52.2273C201.383 51.4773 200.436 50.428 199.761 49.0795C199.087 47.7311 198.75 46.1553 198.75 44.3523C198.75 42.5417 199.087 40.9583 199.761 39.6023C200.436 38.2462 201.383 37.1932 202.602 36.4432C203.822 35.6932 205.25 35.3182 206.886 35.3182C208.523 35.3182 209.951 35.6932 211.17 36.4432C212.39 37.1932 213.337 38.2462 214.011 39.6023C214.686 40.9583 215.023 42.5417 215.023 44.3523C215.023 46.1553 214.686 47.7311 214.011 49.0795C213.337 50.428 212.39 51.4773 211.17 52.2273C209.951 52.9773 208.523 53.3523 206.886 53.3523ZM206.898 50.5C207.958 50.5 208.837 50.2197 209.534 49.6591C210.231 49.0985 210.746 48.3523 211.08 47.4205C211.42 46.4886 211.591 45.4621 211.591 44.3409C211.591 43.2273 211.42 42.2045 211.08 41.2727C210.746 40.3333 210.231 39.5795 209.534 39.0114C208.837 38.4432 207.958 38.1591 206.898 38.1591C205.83 38.1591 204.943 38.4432 204.239 39.0114C203.542 39.5795 203.023 40.3333 202.682 41.2727C202.348 42.2045 202.182 43.2273 202.182 44.3409C202.182 45.4621 202.348 46.4886 202.682 47.4205C203.023 48.3523 203.542 49.0985 204.239 49.6591C204.943 50.2197 205.83 50.5 206.898 50.5ZM226.168 53.3523C224.478 53.3523 223.024 52.9697 221.804 52.2045C220.592 51.4318 219.66 50.3674 219.009 49.0114C218.357 47.6553 218.031 46.1023 218.031 44.3523C218.031 42.5795 218.365 41.0152 219.031 39.6591C219.698 38.2955 220.637 37.2311 221.849 36.4659C223.062 35.7008 224.49 35.3182 226.134 35.3182C227.459 35.3182 228.641 35.5644 229.679 36.0568C230.717 36.5417 231.554 37.2235 232.19 38.1023C232.834 38.9811 233.217 40.0076 233.338 41.1818H230.031C229.849 40.3636 229.433 39.6591 228.781 39.0682C228.137 38.4773 227.274 38.1818 226.19 38.1818C225.243 38.1818 224.414 38.4318 223.702 38.9318C222.997 39.4242 222.448 40.1288 222.054 41.0455C221.66 41.9545 221.463 43.0303 221.463 44.2727C221.463 45.5455 221.656 46.6439 222.043 47.5682C222.429 48.4924 222.974 49.2083 223.679 49.7159C224.391 50.2235 225.228 50.4773 226.19 50.4773C226.834 50.4773 227.418 50.3598 227.94 50.125C228.471 49.8826 228.914 49.5379 229.27 49.0909C229.634 48.6439 229.887 48.1061 230.031 47.4773H233.338C233.217 48.6061 232.849 49.6136 232.236 50.5C231.622 51.3864 230.8 52.0833 229.77 52.5909C228.747 53.0985 227.546 53.3523 226.168 53.3523ZM242.051 53.3864C240.945 53.3864 239.945 53.1818 239.051 52.7727C238.157 52.3561 237.449 51.7538 236.926 50.9659C236.411 50.178 236.153 49.2121 236.153 48.0682C236.153 47.0833 236.343 46.2727 236.722 45.6364C237.1 45 237.612 44.4962 238.256 44.125C238.9 43.7538 239.619 43.4735 240.415 43.2841C241.21 43.0947 242.021 42.9508 242.847 42.8523C243.892 42.7311 244.741 42.6326 245.392 42.5568C246.044 42.4735 246.517 42.3409 246.812 42.1591C247.108 41.9773 247.256 41.6818 247.256 41.2727V41.1932C247.256 40.2008 246.975 39.4318 246.415 38.8864C245.862 38.3409 245.036 38.0682 243.938 38.0682C242.794 38.0682 241.892 38.322 241.233 38.8295C240.581 39.3295 240.131 39.8864 239.881 40.5L236.688 39.7727C237.066 38.7121 237.619 37.8561 238.347 37.2045C239.081 36.5455 239.926 36.0682 240.881 35.7727C241.835 35.4697 242.839 35.3182 243.892 35.3182C244.589 35.3182 245.328 35.4015 246.108 35.5682C246.896 35.7273 247.631 36.0227 248.312 36.4545C249.002 36.8864 249.566 37.5038 250.006 38.3068C250.445 39.1023 250.665 40.1364 250.665 41.4091V53H247.347V50.6136H247.21C246.991 51.053 246.661 51.4848 246.222 51.9091C245.782 52.3333 245.218 52.6856 244.528 52.9659C243.839 53.2462 243.013 53.3864 242.051 53.3864ZM242.79 50.6591C243.729 50.6591 244.532 50.4735 245.199 50.1023C245.873 49.7311 246.384 49.2462 246.733 48.6477C247.089 48.0417 247.267 47.3939 247.267 46.7045V44.4545C247.146 44.5758 246.911 44.6894 246.562 44.7955C246.222 44.8939 245.831 44.9811 245.392 45.0568C244.953 45.125 244.525 45.1894 244.108 45.25C243.691 45.303 243.343 45.3485 243.062 45.3864C242.403 45.4697 241.801 45.6098 241.256 45.8068C240.718 46.0038 240.286 46.2879 239.96 46.6591C239.642 47.0227 239.483 47.5076 239.483 48.1136C239.483 48.9545 239.794 49.5909 240.415 50.0227C241.036 50.447 241.828 50.6591 242.79 50.6591ZM258.588 29.7273V53H255.19V29.7273H258.588ZM263.159 53V35.5455H266.557V53H263.159ZM264.875 32.8523C264.284 32.8523 263.777 32.6553 263.352 32.2614C262.936 31.8598 262.727 31.3826 262.727 30.8295C262.727 30.2689 262.936 29.7917 263.352 29.3977C263.777 28.9962 264.284 28.7955 264.875 28.7955C265.466 28.7955 265.97 28.9962 266.386 29.3977C266.811 29.7917 267.023 30.2689 267.023 30.8295C267.023 31.3826 266.811 31.8598 266.386 32.2614C265.97 32.6553 265.466 32.8523 264.875 32.8523ZM270.764 53V50.6705L280.219 38.6591V38.5H271.071V35.5455H284.457V38.0227L275.366 49.8864V50.0455H284.776V53H270.764ZM293.864 53.3864C292.758 53.3864 291.758 53.1818 290.864 52.7727C289.97 52.3561 289.261 51.7538 288.739 50.9659C288.223 50.178 287.966 49.2121 287.966 48.0682C287.966 47.0833 288.155 46.2727 288.534 45.6364C288.913 45 289.424 44.4962 290.068 44.125C290.712 43.7538 291.432 43.4735 292.227 43.2841C293.023 43.0947 293.833 42.9508 294.659 42.8523C295.705 42.7311 296.553 42.6326 297.205 42.5568C297.856 42.4735 298.33 42.3409 298.625 42.1591C298.92 41.9773 299.068 41.6818 299.068 41.2727V41.1932C299.068 40.2008 298.788 39.4318 298.227 38.8864C297.674 38.3409 296.848 38.0682 295.75 38.0682C294.606 38.0682 293.705 38.322 293.045 38.8295C292.394 39.3295 291.943 39.8864 291.693 40.5L288.5 39.7727C288.879 38.7121 289.432 37.8561 290.159 37.2045C290.894 36.5455 291.739 36.0682 292.693 35.7727C293.648 35.4697 294.652 35.3182 295.705 35.3182C296.402 35.3182 297.14 35.4015 297.92 35.5682C298.708 35.7273 299.443 36.0227 300.125 36.4545C300.814 36.8864 301.379 37.5038 301.818 38.3068C302.258 39.1023 302.477 40.1364 302.477 41.4091V53H299.159V50.6136H299.023C298.803 51.053 298.473 51.4848 298.034 51.9091C297.595 52.3333 297.03 52.6856 296.341 52.9659C295.652 53.2462 294.826 53.3864 293.864 53.3864ZM294.602 50.6591C295.542 50.6591 296.345 50.4735 297.011 50.1023C297.686 49.7311 298.197 49.2462 298.545 48.6477C298.902 48.0417 299.08 47.3939 299.08 46.7045V44.4545C298.958 44.5758 298.723 44.6894 298.375 44.7955C298.034 44.8939 297.644 44.9811 297.205 45.0568C296.765 45.125 296.337 45.1894 295.92 45.25C295.504 45.303 295.155 45.3485 294.875 45.3864C294.216 45.4697 293.614 45.6098 293.068 45.8068C292.53 46.0038 292.098 46.2879 291.773 46.6591C291.455 47.0227 291.295 47.5076 291.295 48.1136C291.295 48.9545 291.606 49.5909 292.227 50.0227C292.848 50.447 293.64 50.6591 294.602 50.6591ZM314.355 53.3523C312.666 53.3523 311.211 52.9697 309.991 52.2045C308.779 51.4318 307.848 50.3674 307.196 49.0114C306.545 47.6553 306.219 46.1023 306.219 44.3523C306.219 42.5795 306.552 41.0152 307.219 39.6591C307.885 38.2955 308.825 37.2311 310.037 36.4659C311.249 35.7008 312.677 35.3182 314.321 35.3182C315.647 35.3182 316.829 35.5644 317.866 36.0568C318.904 36.5417 319.741 37.2235 320.378 38.1023C321.022 38.9811 321.404 40.0076 321.526 41.1818H318.219C318.037 40.3636 317.62 39.6591 316.969 39.0682C316.325 38.4773 315.461 38.1818 314.378 38.1818C313.431 38.1818 312.601 38.4318 311.889 38.9318C311.185 39.4242 310.635 40.1288 310.241 41.0455C309.848 41.9545 309.651 43.0303 309.651 44.2727C309.651 45.5455 309.844 46.6439 310.23 47.5682C310.616 48.4924 311.162 49.2083 311.866 49.7159C312.579 50.2235 313.416 50.4773 314.378 50.4773C315.022 50.4773 315.605 50.3598 316.128 50.125C316.658 49.8826 317.101 49.5379 317.457 49.0909C317.821 48.6439 318.075 48.1061 318.219 47.4773H321.526C321.404 48.6061 321.037 49.6136 320.423 50.5C319.81 51.3864 318.988 52.0833 317.957 52.5909C316.935 53.0985 315.734 53.3523 314.355 53.3523ZM313.128 52.9091H315.355L315.173 53.8409C315.832 53.947 316.408 54.2121 316.901 54.6364C317.393 55.0606 317.639 55.7008 317.639 56.5568C317.647 57.5795 317.204 58.4091 316.31 59.0455C315.423 59.6818 314.139 60 312.457 60L312.389 58.1023C313.177 58.1023 313.813 57.9886 314.298 57.7614C314.791 57.5341 315.041 57.1667 315.048 56.6591C315.056 56.1515 314.866 55.7955 314.48 55.5909C314.101 55.3864 313.495 55.2424 312.662 55.1591L313.128 52.9091ZM330.239 53.3864C329.133 53.3864 328.133 53.1818 327.239 52.7727C326.345 52.3561 325.636 51.7538 325.114 50.9659C324.598 50.178 324.341 49.2121 324.341 48.0682C324.341 47.0833 324.53 46.2727 324.909 45.6364C325.288 45 325.799 44.4962 326.443 44.125C327.087 43.7538 327.807 43.4735 328.602 43.2841C329.398 43.0947 330.208 42.9508 331.034 42.8523C332.08 42.7311 332.928 42.6326 333.58 42.5568C334.231 42.4735 334.705 42.3409 335 42.1591C335.295 41.9773 335.443 41.6818 335.443 41.2727V41.1932C335.443 40.2008 335.163 39.4318 334.602 38.8864C334.049 38.3409 333.223 38.0682 332.125 38.0682C330.981 38.0682 330.08 38.322 329.42 38.8295C328.769 39.3295 328.318 39.8864 328.068 40.5L324.875 39.7727C325.254 38.7121 325.807 37.8561 326.534 37.2045C327.269 36.5455 328.114 36.0682 329.068 35.7727C330.023 35.4697 331.027 35.3182 332.08 35.3182C332.777 35.3182 333.515 35.4015 334.295 35.5682C335.083 35.7273 335.818 36.0227 336.5 36.4545C337.189 36.8864 337.754 37.5038 338.193 38.3068C338.633 39.1023 338.852 40.1364 338.852 41.4091V53H335.534V50.6136H335.398C335.178 51.053 334.848 51.4848 334.409 51.9091C333.97 52.3333 333.405 52.6856 332.716 52.9659C332.027 53.2462 331.201 53.3864 330.239 53.3864ZM330.977 50.6591C331.917 50.6591 332.72 50.4735 333.386 50.1023C334.061 49.7311 334.572 49.2462 334.92 48.6477C335.277 48.0417 335.455 47.3939 335.455 46.7045V44.4545C335.333 44.5758 335.098 44.6894 334.75 44.7955C334.409 44.8939 334.019 44.9811 333.58 45.0568C333.14 45.125 332.712 45.1894 332.295 45.25C331.879 45.303 331.53 45.3485 331.25 45.3864C330.591 45.4697 329.989 45.6098 329.443 45.8068C328.905 46.0038 328.473 46.2879 328.148 46.6591C327.83 47.0227 327.67 47.5076 327.67 48.1136C327.67 48.9545 327.981 49.5909 328.602 50.0227C329.223 50.447 330.015 50.6591 330.977 50.6591ZM328.841 33.4318L326.557 33.3636C326.557 32.1061 326.894 31.1023 327.568 30.3523C328.25 29.6023 329.091 29.2273 330.091 29.2273C330.553 29.2273 330.958 29.3068 331.307 29.4659C331.655 29.6174 331.981 29.7955 332.284 30C332.595 30.197 332.902 30.375 333.205 30.5341C333.515 30.6856 333.86 30.7614 334.239 30.7614C334.678 30.7614 335.034 30.5947 335.307 30.2614C335.587 29.928 335.727 29.5152 335.727 29.0227L337.966 29.1705C337.966 30.4356 337.625 31.4318 336.943 32.1591C336.261 32.8788 335.424 33.2424 334.432 33.25C333.894 33.25 333.447 33.1742 333.091 33.0227C332.742 32.8636 332.432 32.6856 332.159 32.4886C331.886 32.2841 331.606 32.1023 331.318 31.9432C331.03 31.7841 330.686 31.7045 330.284 31.7045C329.86 31.7045 329.511 31.8712 329.239 32.2045C328.973 32.5303 328.841 32.9394 328.841 33.4318ZM350.73 53.3523C349.094 53.3523 347.666 52.9773 346.446 52.2273C345.226 51.4773 344.279 50.428 343.605 49.0795C342.931 47.7311 342.594 46.1553 342.594 44.3523C342.594 42.5417 342.931 40.9583 343.605 39.6023C344.279 38.2462 345.226 37.1932 346.446 36.4432C347.666 35.6932 349.094 35.3182 350.73 35.3182C352.366 35.3182 353.795 35.6932 355.014 36.4432C356.234 37.1932 357.181 38.2462 357.855 39.6023C358.529 40.9583 358.866 42.5417 358.866 44.3523C358.866 46.1553 358.529 47.7311 357.855 49.0795C357.181 50.428 356.234 51.4773 355.014 52.2273C353.795 52.9773 352.366 53.3523 350.73 53.3523ZM350.741 50.5C351.802 50.5 352.681 50.2197 353.378 49.6591C354.075 49.0985 354.59 48.3523 354.923 47.4205C355.264 46.4886 355.435 45.4621 355.435 44.3409C355.435 43.2273 355.264 42.2045 354.923 41.2727C354.59 40.3333 354.075 39.5795 353.378 39.0114C352.681 38.4432 351.802 38.1591 350.741 38.1591C349.673 38.1591 348.787 38.4432 348.082 39.0114C347.385 39.5795 346.866 40.3333 346.526 41.2727C346.192 42.2045 346.026 43.2273 346.026 44.3409C346.026 45.4621 346.192 46.4886 346.526 47.4205C346.866 48.3523 347.385 49.0985 348.082 49.6591C348.787 50.2197 349.673 50.5 350.741 50.5Z" fill="#D9D9D9"/>
</svg>